<?xml version="1.0" encoding="utf-8"?>
<!-- Generator: Adobe Illustrator 24.0.1, SVG Export Plug-In . SVG Version: 6.00 Build 0)  -->
<svg version="1.1" id="레이어_1" xmlns="http://www.w3.org/2000/svg" xmlns:xlink="http://www.w3.org/1999/xlink" x="0px"
	 y="0px" viewBox="0 0 702.3 155.9" style="enable-background:new 0 0 702.3 155.9;" xml:space="preserve">
<style type="text/css">
	.st0{fill-rule:evenodd;clip-rule:evenodd;fill:#E31F1C;}
	.st1{clip-path:url(#SVGID_2_);}
	.st2{fill:#E31F1C;}
</style>
<title>logo</title>
<g id="레이어_2_1_">
	<g id="레이어_1-2">
		<path class="st0" d="M46.6,46.4C57.9,35,74.4,30.7,89.8,34.9l0,0c11.5-11.7,18.6-18.5,21.3-20.5C76.1-3.8,33,9.7,14.6,44.6
			s-4.8,78.2,30.2,96.5c27.7,14.5,61.7,9.3,83.8-12.8l11.4-11.4l27.4-27.4c10.5-10.5,6-25.2-7.3-25.2h-48.5l7.9-7.9l0,0l10-10
			c17.3-17.3,45.5-17.3,62.8,0s17.3,45.5,0,62.8c-11.3,11.3-27.8,15.7-43.3,11.4l0,0c-7.6,7.8-14.7,14.7-21.3,20.5
			c35,18.4,78.2,5,96.6-30s5-78.2-30-96.6c-27.8-14.6-61.8-9.4-83.9,12.8L99,38.6l0,0L73.4,64.3l-4,4c-5.2,5.4-5.1,13.9,0.3,19.2
			c2.5,2.4,5.8,3.8,9.3,3.8h48.3l-7.9,7.9l-10,10C92,126.5,63.9,126.4,46.6,109C29.4,91.7,29.4,63.7,46.6,46.4"/>
		<g>
			<defs>
				<path id="SVGID_1_" d="M46.6,46.4C57.9,35,74.4,30.7,89.8,34.9l0,0c11.5-11.7,18.6-18.5,21.3-20.5C76.1-3.8,33,9.7,14.6,44.6
					s-4.8,78.2,30.2,96.5c27.7,14.5,61.7,9.3,83.8-12.8l11.4-11.4l27.4-27.4c10.5-10.5,6-25.2-7.3-25.2h-48.5l7.9-7.9l0,0l10-10
					c17.3-17.3,45.5-17.3,62.8,0s17.3,45.5,0,62.8c-11.3,11.3-27.8,15.7-43.3,11.4l0,0c-7.6,7.8-14.7,14.7-21.3,20.5
					c35,18.4,78.2,5,96.6-30s5-78.2-30-96.6c-27.8-14.6-61.8-9.4-83.9,12.8L99,38.6l0,0L73.4,64.3l-4,4c-5.2,5.4-5.1,13.9,0.3,19.2
					c2.5,2.4,5.8,3.8,9.3,3.8h48.3l-7.9,7.9l-10,10C92,126.5,63.9,126.4,46.6,109C29.4,91.7,29.4,63.7,46.6,46.4"/>
			</defs>
			<use xlink:href="#SVGID_1_"  style="overflow:visible;fill:#E31F1C;"/>
			<clipPath id="SVGID_2_">
				<use xlink:href="#SVGID_1_"  style="overflow:visible;"/>
			</clipPath>
			<g class="st1">
				<rect y="0" class="st2" width="239.2" height="155.9"/>
			</g>
		</g>
		<path class="st2" d="M326.7,85.5h-44.7v38.3c0.1,2.2-0.3,4.5-1.1,6.6c-0.7,1.7-1.7,3.2-3,4.5c-1.3,1.2-2.8,2.1-4.4,2.6
			c-5.1,1.8-10.7,0.8-14.8-2.6c-2.9-2.3-4.3-6-4.3-11V31.7c0-4.9,1.4-8.5,4.3-10.9c4.1-3.4,9.7-4.4,14.8-2.6
			c1.6,0.6,3.1,1.5,4.4,2.6c1.3,1.3,2.3,2.8,3,4.5c0.8,2,1.2,4.2,1.1,6.4v33.9h44.7V31.7c0-5,1.4-8.7,4.1-10.9
			c5.6-4.6,13.6-4.6,19.2,0.1c2.9,2.3,4.3,6,4.3,10.9v92.2c0,5-1.4,8.7-4.3,11c-2.7,2.3-6.1,3.5-9.6,3.5c-3.5,0-6.9-1.2-9.6-3.5
			c-2.8-2.3-4.2-6-4.1-11L326.7,85.5z"/>
		<path class="st2" d="M369.2,137.8c-1.8-0.5-3.5-1.4-5-2.6c-1.2-1-2.2-2.2-2.8-3.7c-0.6-1.3-0.9-2.7-0.9-4.2c0-1.4,0.2-2.7,0.6-4
			l34.7-97.9c1-2.4,2.6-4.5,4.8-6.1c2.4-2,6-3,10.8-3s8.4,1,10.9,3c2.1,1.6,3.8,3.7,4.8,6.1l34.7,98.3c1.3,3.7,1.2,6.7-0.2,8.9
			c-1.4,2.2-3.8,3.8-7.2,4.8c-4,1.2-7.4,1.1-10.1-0.3c-2.7-1.4-4.8-3.9-5.7-6.9l-7.4-21.9h-38.7l-7.7,22.7c-1,2.7-3,4.8-5.6,5.9
			C376.1,138.4,372.5,138.7,369.2,137.8z M411.8,50.9L398.9,89h25.7L411.8,50.9z"/>
		<path class="st2" d="M562.1,60.6c-3.6,5.2-7.3,10.9-11.1,17.1c-3.8,6.2-7.4,11.8-10.8,16.9c-1.2,1.8-2.9,3.2-4.8,4.1
			c-1.8,0.7-3.7,1-5.6,1c-1.9,0-3.7-0.4-5.4-1.1c-2-0.8-3.6-2.3-4.6-4.2l-21.6-34.6v66.3c0,4.4-1.4,7.5-4.2,9.4
			c-2.8,1.9-6.1,2.9-9.5,2.9c-1.8,0-3.5-0.2-5.2-0.7c-1.6-0.5-3.1-1.2-4.4-2.2c-1.3-1-2.4-2.3-3.1-3.8c-0.8-1.7-1.2-3.6-1.2-5.5
			V29.3c0-4,1.4-6.9,4.2-8.9c2.8-2,6.2-3.1,9.7-3c2,0,4.1,0.1,6.1,0.4c1.7,0.2,3.4,0.8,5,1.6c1.6,0.9,3,2,4.3,3.3
			c1.6,1.6,2.9,3.4,4.1,5.3l25.9,40.6l26.8-40.6c2.7-3.9,5.3-6.7,8.1-8.2c2.7-1.5,6.4-2.3,11.1-2.3c3.5-0.1,6.9,0.9,9.7,3
			c2.7,2,4,5,4,8.9v96.8c0.1,1.9-0.4,3.8-1.2,5.5c-0.7,1.5-1.8,2.8-3.1,3.8c-1.3,1-2.8,1.8-4.4,2.2c-3.3,0.9-6.8,0.9-10.1,0
			c-1.6-0.5-3.1-1.2-4.4-2.2c-1.3-1-2.4-2.3-3.1-3.8c-0.8-1.7-1.3-3.6-1.2-5.5L562.1,60.6z"/>
		<path class="st2" d="M653.4,139.2c-6.5,0.1-13-0.6-19.4-2c-5.5-1.2-10.7-3.4-15.4-6.5c-4.3-3-7.8-7.1-10.1-11.8
			c-2.4-4.8-3.7-10.6-3.9-17.6c-0.2-7.7-0.3-15.3-0.3-22.9c0-7.6,0.1-15.4,0.3-23.4c0.1-6.8,1.4-12.6,3.9-17.4
			c2.4-4.7,5.9-8.7,10.2-11.7c4.6-3.2,9.9-5.4,15.4-6.5c6.3-1.4,12.8-2,19.3-2c6.3,0,12.6,0.7,18.7,2.2c5.4,1.3,10.5,3.6,15.1,6.7
			c4.3,3,7.9,7,10.4,11.7c2.8,5.3,4.3,11.2,4.4,17.2c0.3,7.7,0.5,15.5,0.4,23.5c-0.1,8-0.2,15.6-0.4,22.8c0.1,6-1.3,11.9-4,17.3
			c-2.5,4.7-6,8.7-10.3,11.8c-4.7,3.2-9.9,5.4-15.3,6.7C666.1,138.5,659.7,139.3,653.4,139.2z M675.4,55c-0.2-6.2-2.3-10.7-6.2-13.7
			c-3.9-2.9-9.2-4.4-15.8-4.4c-6.9,0-12.3,1.5-16,4.5c-3.7,3-5.7,7.6-6,13.7c-0.3,15.4-0.3,30.8,0,46.2c0.2,6.3,2.2,10.9,6,13.7
			c3.8,2.9,9.1,4.3,16,4.3c6.5,0,11.7-1.5,15.6-4.6c3.9-3,6-7.6,6.5-13.7c0.5-7.6,0.7-15.1,0.6-22.7C675.8,70.9,675.6,63.1,675.4,55
			L675.4,55z"/>
	</g>
</g>
</svg>
