<svg xmlns="http://www.w3.org/2000/svg" xmlns:xlink="http://www.w3.org/1999/xlink" viewBox="0 0 702.34 155.86"><defs><style>.cls-1,.cls-2,.cls-4{fill:#fff;}.cls-1{clip-rule:evenodd;}.cls-2{fill-rule:evenodd;}.cls-3{clip-path:url(#clip-path);}</style><clipPath id="clip-path" transform="translate(6.6 6.36)"><path class="cls-1" d="M40,40a44.35,44.35,0,0,1,43.2-11.42h0Q100.38,11,104.52,8.11a71.48,71.48,0,1,0,17.42,113.82l11.35-11.35,27.45-27.45c10.49-10.49,6-25.21-7.29-25.21H105l7.87-7.87h0l10-10a44.41,44.41,0,1,1,19.53,74.2h0Q131,126,121.11,134.71A71.51,71.51,0,1,0,103.77,20.92L92.41,32.27h0L66.77,57.92l-4,4a13.55,13.55,0,0,0,9.59,23h48.33l-7.87,7.87-10,10A44.41,44.41,0,0,1,40,40"/></clipPath></defs><title>logo-w</title><g id="레이어_2" data-name="레이어 2"><g id="레이어_1-2" data-name="레이어 1"><path class="cls-2" d="M40,40a44.35,44.35,0,0,1,43.2-11.42h0Q100.38,11,104.52,8.11a71.48,71.48,0,1,0,17.42,113.82l11.35-11.35,27.45-27.45c10.49-10.49,6-25.21-7.29-25.21H105l7.87-7.87h0l10-10a44.41,44.41,0,1,1,19.53,74.2h0Q131,126,121.11,134.71A71.51,71.51,0,1,0,103.77,20.92L92.41,32.27h0L66.77,57.92l-4,4a13.55,13.55,0,0,0,9.59,23h48.33l-7.87,7.87-10,10A44.41,44.41,0,0,1,40,40" transform="translate(6.6 6.36)"/><g class="cls-3"><rect class="cls-4" width="239.19" height="155.86"/></g><path class="cls-4" d="M320.07,79.18H275.34v38.34a17.35,17.35,0,0,1-1.12,6.55,12.34,12.34,0,0,1-3,4.47,12.75,12.75,0,0,1-4.39,2.64A15.19,15.19,0,0,1,252,128.54q-4.31-3.51-4.31-11V25.34q0-7.35,4.31-10.86a15.12,15.12,0,0,1,14.78-2.64,12.6,12.6,0,0,1,4.39,2.64,12.34,12.34,0,0,1,3,4.47,16.82,16.82,0,0,1,1.12,6.39V59.21h44.73V25.34q0-7.52,4.15-10.94a14.94,14.94,0,0,1,19.17.08q4.32,3.51,4.32,10.86v92.18q0,7.5-4.32,11a14.8,14.8,0,0,1-9.58,3.51,14.43,14.43,0,0,1-9.59-3.51q-4.16-3.51-4.15-11Z" transform="translate(6.6 6.36)"/><path class="cls-4" d="M362.56,131.41a14.41,14.41,0,0,1-4.95-2.55,9.73,9.73,0,0,1-2.8-3.68,10.66,10.66,0,0,1-.87-4.15,12.72,12.72,0,0,1,.63-4l34.67-97.93A14.46,14.46,0,0,1,394,13q3.6-3,10.79-3t10.86,3a14.16,14.16,0,0,1,4.79,6.15l34.67,98.25c1.28,3.72,1.22,6.71-.16,8.94s-3.78,3.84-7.19,4.8q-6.07,1.76-10.14-.32a11.35,11.35,0,0,1-5.67-6.87L424.55,102H385.89l-7.67,22.69a10.17,10.17,0,0,1-5.59,5.91A15.12,15.12,0,0,1,362.56,131.41Zm42.66-86.9L392.28,82.69H418Z" transform="translate(6.6 6.36)"/><path class="cls-4" d="M555.54,54.25q-5.43,7.83-11.1,17.1T533.66,88.28a11.65,11.65,0,0,1-4.8,4.08,14.71,14.71,0,0,1-5.59,1,15.13,15.13,0,0,1-5.43-1.11,9.15,9.15,0,0,1-4.63-4.16L491.64,53.46v66.29q0,6.56-4.23,9.43a16.5,16.5,0,0,1-9.51,2.87,18.86,18.86,0,0,1-5.19-.71,12.76,12.76,0,0,1-4.39-2.24,11.57,11.57,0,0,1-3.12-3.84,11.82,11.82,0,0,1-1.19-5.51V22.94Q464,17,468.24,14a16.11,16.11,0,0,1,9.66-3,42.82,42.82,0,0,1,6.07.4,15.21,15.21,0,0,1,5,1.6,18.74,18.74,0,0,1,4.31,3.27,33.16,33.16,0,0,1,4.15,5.27l25.88,40.58L550.11,21.5c2.66-3.93,5.35-6.68,8.07-8.22S564.59,11,569.28,11A15.62,15.62,0,0,1,579,14q4,3,4,8.94v96.81a11.82,11.82,0,0,1-1.2,5.51,11.55,11.55,0,0,1-3.11,3.84,12.81,12.81,0,0,1-4.4,2.24,18.17,18.17,0,0,1-10.06,0,12.67,12.67,0,0,1-4.39-2.24,11.57,11.57,0,0,1-3.12-3.84,11.82,11.82,0,0,1-1.2-5.51Z" transform="translate(6.6 6.36)"/><path class="cls-4" d="M646.76,132.85a88.44,88.44,0,0,1-19.41-2A42.92,42.92,0,0,1,612,124.31a31.87,31.87,0,0,1-10.14-11.75Q598.19,105.38,598,95q-.33-11.51-.32-22.92T598,48.66q.15-10.21,3.91-17.41a32.51,32.51,0,0,1,10.22-11.74A42.57,42.57,0,0,1,627.51,13a87.65,87.65,0,0,1,19.25-2,76.8,76.8,0,0,1,18.69,2.16,44.81,44.81,0,0,1,15.1,6.71,34.2,34.2,0,0,1,10.38,11.66,39.07,39.07,0,0,1,4.4,17.17q.48,11.51.39,23.49T695.33,95a37.48,37.48,0,0,1-4,17.25A33,33,0,0,1,681,124a45.84,45.84,0,0,1-15.34,6.71A79.31,79.31,0,0,1,646.76,132.85Zm22-84.19q-.33-9.25-6.23-13.66t-15.82-4.39q-10.38,0-16,4.47t-6,13.74q-.47,23.17,0,46.17.33,9.44,6,13.74t16,4.31q9.75,0,15.58-4.55t6.47-13.66q.8-11.34.56-22.68T668.81,48.66Z" transform="translate(6.6 6.36)"/></g></g></svg>